<?xml version="1.0" standalone="no"?>
<!DOCTYPE svg PUBLIC "-//W3C//DTD SVG 20010904//EN"
 "http://www.w3.org/TR/2001/REC-SVG-20010904/DTD/svg10.dtd">
<svg version="1.0" xmlns="http://www.w3.org/2000/svg"
 width="400.000000pt" height="400.000000pt" viewBox="0 0 400.000000 400.000000"
 preserveAspectRatio="xMidYMid meet">
<metadata>
Created by potrace 1.11, written by Peter Selinger 2001-2013
</metadata>
<g transform="translate(0.000000,400.000000) scale(0.100000,-0.100000)"
fill="#000000" stroke="none">
<path d="M1670 3940 c-14 -4 -38 -8 -55 -9 -16 -1 -43 -8 -59 -16 -21 -11 -32
-12 -42 -4 -10 8 -24 0 -61 -34 -41 -37 -54 -44 -86 -43 -21 1 -41 -2 -43 -6
-3 -4 1 -8 8 -8 7 -1 -4 -7 -25 -14 -37 -14 -147 -92 -147 -106 0 -3 -34 -42
-76 -85 -77 -81 -134 -156 -134 -178 0 -17 -64 -173 -78 -190 -21 -25 -52
-102 -52 -130 0 -15 -10 -46 -21 -69 -56 -109 -71 -238 -54 -458 3 -41 7 -115
10 -165 2 -49 9 -91 14 -93 5 -2 8 -9 6 -15 -9 -25 11 -82 27 -79 21 3 43 -47
58 -128 6 -36 20 -92 30 -125 11 -33 25 -96 33 -140 15 -89 33 -125 60 -125
16 0 18 -8 16 -63 -2 -61 12 -107 31 -107 6 0 10 -11 10 -24 0 -33 10 -56 24
-56 7 0 19 -21 28 -47 9 -29 20 -47 28 -45 14 3 30 -15 30 -36 0 -7 -5 -10
-10 -7 -6 4 -8 11 -5 16 4 5 -1 9 -9 9 -20 0 -20 -1 1 -64 26 -82 28 -88 61
-159 18 -37 32 -72 32 -77 0 -9 -29 -56 -67 -108 -9 -12 -32 -32 -52 -44 -20
-12 -38 -25 -41 -28 -25 -30 -340 -150 -446 -169 -29 -6 -86 -21 -126 -35 -40
-14 -102 -32 -138 -41 -150 -36 -194 -52 -213 -77 -17 -22 -18 -31 -8 -61 7
-20 17 -37 22 -39 6 -2 14 -20 18 -40 l9 -37 -79 -31 c-43 -16 -83 -30 -89
-30 -6 0 -10 -57 -10 -160 l0 -160 683 1 c390 0 673 4 662 9 -16 7 -11 9 22 9
23 1 45 -4 48 -10 8 -11 425 -11 425 0 0 4 -5 12 -12 19 -15 15 61 4 81 -12
18 -14 271 -22 271 -9 0 6 18 15 40 22 23 7 40 18 40 26 0 8 -5 15 -11 15 -6
0 -1 8 11 18 20 16 21 21 9 40 -7 12 -22 23 -34 25 -16 3 -14 5 10 12 40 10
55 23 55 46 0 11 5 19 10 19 13 0 13 27 1 32 -6 2 -6 17 -1 38 4 19 8 27 9 18
1 -12 6 -15 17 -11 11 4 12 8 4 13 -16 10 -8 46 9 42 7 -1 15 6 18 17 3 11 11
22 19 25 7 3 23 27 35 53 26 58 24 56 52 58 15 1 23 9 25 25 4 23 38 59 56 60
18 0 45 32 39 46 -3 8 5 18 19 24 13 6 24 19 25 28 1 9 19 36 41 60 52 56 126
162 113 162 -5 0 -13 -5 -16 -11 -4 -6 -13 -8 -20 -5 -8 3 -19 -1 -25 -9 -12
-15 -57 -29 -82 -26 -11 1 -25 -12 -37 -36 -25 -47 -45 -73 -57 -73 -5 0 -22
-14 -37 -29 -45 -46 -210 -78 -236 -47 -16 19 -86 16 -87 -4 -1 -8 -2 -21 -3
-27 -2 -24 -58 -15 -80 13 -14 18 -31 26 -58 28 -45 3 -93 21 -93 36 0 5 -9
10 -21 10 -46 0 -89 49 -67 77 7 9 0 14 -31 19 -47 7 -53 20 -16 34 14 5 25
14 25 19 0 6 -7 8 -15 5 -25 -10 -38 6 -20 26 9 10 14 23 11 28 -6 11 23 26
32 17 3 -3 -1 -5 -8 -5 -11 0 -11 -3 -2 -12 8 -8 15 -8 27 2 9 8 15 8 15 2 0
-25 51 -62 86 -62 25 0 33 -4 28 -12 -4 -6 8 -2 27 9 23 14 58 22 109 26 41 3
92 10 113 17 50 15 112 77 112 113 1 33 -17 41 -97 41 -53 1 -78 9 -66 21 10
10 182 56 238 64 30 4 62 11 70 14 20 8 126 -44 122 -60 -1 -7 2 -13 8 -13 5
0 10 -6 10 -12 1 -14 34 -58 44 -58 3 0 6 9 6 21 0 12 4 18 11 13 14 -8 3 65
-12 80 -5 6 -9 19 -9 30 0 74 -49 143 -115 163 -37 12 -45 4 -45 -43 0 -13
-10 -34 -22 -46 -21 -21 -32 -23 -148 -23 -72 0 -133 -5 -144 -11 -13 -8 -32
-8 -60 -2 -72 17 -71 16 -51 38 21 23 46 25 78 8 61 -32 89 -9 81 70 -3 33 0
43 19 55 27 17 137 122 137 130 0 3 -62 5 -137 4 -114 -1 -144 2 -171 16 -18
10 -37 15 -42 12 -17 -11 -46 4 -58 29 -11 24 -6 62 10 83 5 7 5 14 -1 17 -10
7 -3 77 9 86 4 3 12 15 19 28 10 18 9 34 -4 79 -11 38 -14 69 -9 97 4 22 7 60
6 83 -3 51 7 58 100 67 l66 6 16 -31 c15 -30 15 -34 0 -50 -14 -15 -14 -21 -4
-34 16 -19 54 -19 70 0 10 12 9 20 -4 40 -17 25 -17 25 14 23 28 -2 30 -6 36
-48 8 -57 45 -86 127 -100 61 -10 104 -7 191 12 l59 13 -26 18 c-14 9 -31 17
-37 17 -5 0 -10 5 -10 10 0 6 -11 10 -24 10 -14 0 -28 5 -31 10 -3 6 2 10 12
10 14 0 15 2 4 9 -11 7 -3 15 30 31 37 19 53 22 110 16 l68 -6 -10 32 c-13 47
-42 64 -148 89 -52 13 -88 25 -80 28 26 8 39 27 26 40 -8 8 -7 11 4 11 9 0 31
8 50 17 l33 17 -27 7 c-16 4 -34 13 -42 19 -10 9 -19 8 -38 -4 -13 -9 -26 -14
-29 -11 -3 3 -39 -1 -79 -9 -41 -8 -102 -18 -137 -21 -34 -4 -65 -11 -68 -16
-7 -13 -48 -11 -61 2 -19 19 -22 -6 -8 -66 7 -33 11 -63 8 -68 -8 -13 -156 -6
-170 8 -10 11 -10 14 1 18 11 4 12 15 6 41 -9 39 -5 46 22 46 10 0 18 5 18 11
0 8 -12 9 -37 4 -41 -8 -92 -8 -135 1 -14 3 -29 1 -32 -5 -10 -16 -165 -3
-206 18 -35 18 -144 22 -168 7 -7 -4 -12 -3 -12 3 0 5 6 12 13 15 6 4 2 4 -11
2 -12 -2 -35 1 -51 7 -23 9 -34 7 -55 -6 -14 -10 -26 -13 -26 -7 0 6 -11 5
-28 -4 -43 -22 -141 -45 -148 -35 -3 5 -10 7 -15 4 -15 -10 -10 -33 9 -39 9
-2 2 -4 -16 -3 -18 1 -36 -4 -41 -11 -5 -8 -8 0 -9 22 -1 19 5 39 13 46 20 16
19 56 -1 64 -24 9 -5 28 22 22 17 -5 24 -2 24 9 0 8 6 15 13 15 15 0 -33 39
-49 40 -7 0 -15 7 -18 16 -9 22 -8 24 9 24 21 0 19 17 -7 53 -13 18 -21 44
-21 64 1 18 -3 36 -8 39 -6 3 -6 10 -1 17 5 7 15 35 21 62 18 74 38 93 107
101 33 4 63 12 67 18 5 6 5 1 2 -11 -5 -18 -2 -23 14 -23 11 0 23 5 26 10 4 6
12 7 18 3 24 -15 46 -12 52 7 9 27 23 25 37 -5 13 -29 17 -30 45 -10 11 8 49
17 84 19 35 3 64 6 64 6 0 1 12 3 28 4 15 1 27 -3 27 -9 0 -5 4 -4 9 4 5 8 16
11 25 8 9 -4 43 2 76 13 33 11 92 22 130 24 38 3 85 12 103 20 24 10 39 11 52
3 15 -8 17 -7 12 7 -7 19 -3 20 24 5 14 -7 24 -7 33 0 15 12 153 16 214 6 36
-6 49 -3 80 17 20 14 48 29 62 33 35 11 100 53 100 65 0 14 43 13 57 -1 13
-13 33 -4 33 17 0 24 28 16 47 -13 9 -16 30 -41 45 -58 15 -16 43 -48 62 -70
l35 -40 1 32 c0 17 -4 35 -10 38 -5 3 -10 34 -9 68 0 47 3 57 10 42 7 -16 9
-14 6 13 -2 18 0 35 4 37 4 3 10 -48 14 -113 4 -64 13 -135 21 -157 8 -22 14
-49 14 -59 0 -11 3 -17 6 -13 3 3 6 38 5 78 -1 65 0 70 15 58 15 -12 16 -11
11 6 -16 50 -23 114 -15 129 5 9 7 20 4 24 -2 4 -1 14 5 22 6 11 9 3 9 -25 1
-38 38 -127 40 -95 0 9 6 6 15 -10 14 -24 15 -22 12 33 -2 51 -4 57 -22 55
-16 -2 -21 4 -23 31 -2 18 1 38 7 44 8 8 11 0 12 -28 2 -34 3 -36 6 -10 5 33
-13 101 -34 126 -7 8 -13 19 -13 23 0 4 -9 19 -19 32 l-19 24 -4 -34 c-2 -19
0 -32 4 -30 5 3 1 -10 -8 -29 -14 -29 -15 -41 -5 -68 l11 -34 -20 25 c-11 14
-18 33 -16 42 2 10 1 20 -4 23 -4 2 -13 25 -20 50 -7 25 -15 45 -17 45 -12 0
-33 -31 -33 -50 0 -12 -4 -18 -10 -15 -6 4 -10 31 -9 62 l2 55 18 -23 19 -24
0 32 c0 17 -4 35 -10 38 -5 3 -10 14 -10 24 0 16 -89 91 -99 83 -2 -2 -7 2
-12 9 -4 8 -10 11 -13 8 -3 -3 5 -29 19 -58 19 -38 23 -56 16 -69 -9 -15 -10
-15 -11 4 0 11 -7 29 -15 40 -13 17 -14 16 -5 -15 5 -19 8 -37 5 -39 -5 -5
-13 13 -52 123 -14 39 -36 85 -50 103 -13 18 -22 38 -20 45 4 9 6 9 6 0 1 -7
8 -13 17 -13 8 0 13 -3 11 -7 -3 -5 11 -16 30 -26 l35 -18 -6 26 c-4 14 -5 25
-3 25 2 0 21 -16 43 -36 21 -20 31 -34 21 -30 -17 5 -16 2 5 -36 27 -49 54
-65 38 -23 -14 38 -13 41 9 17 10 -12 24 -22 31 -22 15 0 70 -58 70 -75 0 -7
8 -32 19 -55 18 -41 18 -41 24 -13 3 15 -1 40 -9 55 -8 15 -14 33 -14 41 0 7
-12 24 -27 37 -16 14 -22 25 -15 28 8 2 6 11 -6 30 -22 35 -47 56 -99 83 -30
15 -40 26 -36 38 4 9 3 13 -1 9 -9 -8 -82 60 -79 73 2 4 -3 6 -11 3 -8 -3 -23
7 -34 23 -21 30 -88 53 -152 53 -16 0 -55 16 -87 35 -32 19 -63 35 -70 35 -6
0 -35 11 -65 25 -44 21 -63 24 -108 19 -39 -4 -72 0 -115 14 -33 10 -81 18
-108 16 -26 -1 -49 2 -52 6 -2 4 -26 4 -52 -1 -35 -5 -54 -3 -70 7 -12 8 -24
14 -25 13 -2 -1 -14 -5 -28 -9z m791 -291 c19 -16 20 -18 4 -10 -34 17 -51 31
-39 31 7 0 22 -9 35 -21z m106 -25 c-3 -3 -12 -4 -19 -1 -8 3 -5 6 6 6 11 1
17 -2 13 -5z m7 -89 c11 -16 12 -23 3 -20 -16 7 -40 45 -28 45 5 0 16 -11 25
-25z m-281 -117 c45 -41 49 -47 29 -48 -12 0 -39 7 -59 15 -19 8 -45 15 -57
15 -11 0 -42 13 -68 28 -37 22 -45 31 -36 40 16 16 39 15 33 0 -3 -8 16 -21
52 -34 32 -12 67 -25 78 -29 18 -8 19 -7 5 7 -9 8 -26 19 -38 22 -13 4 -19 12
-16 18 5 8 1 9 -11 4 -31 -11 -53 2 -47 29 l4 24 40 -22 c21 -12 62 -43 91
-69z m304 30 c-3 -8 -6 -5 -6 6 -1 11 2 17 5 13 3 -3 4 -12 1 -19z m-142 -19
c11 -17 -1 -21 -15 -4 -8 9 -8 15 -2 15 6 0 14 -5 17 -11z m67 -129 l39 -40
-31 4 c-33 4 -43 10 -46 29 -1 7 -5 20 -9 30 -11 28 5 20 47 -23z m73 16 c7
-7 16 -31 19 -52 l6 -39 -15 39 c-8 21 -20 45 -26 52 -15 18 -2 18 16 0z
m-145 -21 c13 8 35 -25 36 -55 l2 -28 -44 42 c-28 27 -38 42 -28 44 8 2 15 9
15 15 1 7 3 4 6 -6 2 -9 8 -15 13 -12z m120 -6 c11 -19 10 -20 -10 -9 -11 6
-18 15 -15 21 9 13 13 11 25 -12z m-250 -15 c40 -16 49 -27 30 -39 -5 -3 -10
-2 -10 4 0 5 -16 15 -35 21 -34 11 -56 30 -36 30 6 0 29 -7 51 -16z m194 -40
c9 -24 7 -27 -9 -10 -17 17 -19 26 -6 26 5 0 12 -7 15 -16z m36 6 c0 -5 -2
-10 -4 -10 -3 0 -8 5 -11 10 -3 6 -1 10 4 10 6 0 11 -4 11 -10z m-170 -10 c0
-5 -4 -10 -10 -10 -5 0 -10 5 -10 10 0 6 5 10 10 10 6 0 10 -4 10 -10z m-40
-46 c0 -2 -7 -4 -15 -4 -8 0 -15 4 -15 10 0 5 7 7 15 4 8 -4 15 -8 15 -10z
m-865 -904 c-3 -5 -12 -10 -18 -10 -7 0 -6 4 3 10 19 12 23 12 15 0z m922 -26
c-3 -3 -12 -4 -19 -1 -8 3 -5 6 6 6 11 1 17 -2 13 -5z m-50 -10 c-3 -3 -12 -4
-19 -1 -8 3 -5 6 6 6 11 1 17 -2 13 -5z m-57 -19 c0 -3 -9 -14 -20 -25 -23
-23 -26 -19 -8 10 12 18 28 27 28 15z m-810 -33 c-35 -3 -41 -6 -25 -12 18 -8
19 -9 1 -9 -12 -1 -16 -6 -12 -16 3 -10 -1 -15 -14 -15 -27 0 -34 17 -13 30
15 9 12 10 -12 4 -16 -4 -40 -6 -52 -6 -12 1 -25 -3 -28 -8 -8 -12 -25 -13
-25 -1 0 15 103 39 165 38 53 0 55 -1 15 -5z m490 -18 c0 -2 -9 0 -20 6 -11 6
-20 13 -20 16 0 2 9 0 20 -6 11 -6 20 -13 20 -16z m-423 -12 c20 -17 20 -17
-18 -18 -32 -1 -39 2 -39 17 0 24 30 25 57 1z m723 -8 c0 -2 -7 -4 -15 -4 -8
0 -15 4 -15 10 0 5 7 7 15 4 8 -4 15 -8 15 -10z m40 6 c0 -5 -2 -10 -4 -10 -3
0 -8 5 -11 10 -3 6 -1 10 4 10 6 0 11 -4 11 -10z m-1170 -35 c14 -19 14 -19
-2 -6 -10 7 -18 18 -18 24 0 6 1 8 3 6 1 -2 9 -13 17 -24z m-44 -20 c-3 -8 0
-15 7 -15 31 -1 57 -35 59 -78 1 -33 5 -42 20 -42 10 0 18 -7 18 -17 0 -14 2
-15 9 -4 5 7 14 10 21 6 9 -6 9 -9 0 -15 -7 -4 -10 -15 -7 -23 5 -14 9 -14 38
0 25 12 33 13 39 3 4 -7 17 -10 29 -7 21 5 39 -23 26 -42 -7 -12 59 -26 75
-16 7 4 16 2 20 -5 9 -15 103 -17 108 -2 2 7 11 8 28 2 15 -6 34 -6 50 0 31
12 47 13 40 2 -6 -10 36 -8 55 3 7 5 22 8 32 7 10 -2 17 3 17 13 0 9 4 14 10
10 5 -3 7 -12 3 -20 -3 -10 1 -15 13 -16 11 0 14 -3 7 -6 -17 -6 -16 -24 2
-59 21 -41 20 -76 -2 -72 -18 3 -20 -4 -8 -34 5 -12 -3 -27 -23 -48 -17 -16
-26 -30 -21 -30 5 0 -1 -18 -12 -40 -14 -26 -27 -39 -38 -38 -12 2 -15 -4 -13
-24 2 -19 -3 -28 -18 -33 -13 -4 -20 -15 -20 -31 0 -28 16 -32 23 -6 4 13 5
13 6 -4 0 -12 11 -28 23 -36 28 -19 19 -56 -21 -83 -18 -12 -26 -22 -19 -26 6
-4 2 -10 -11 -14 -28 -9 -52 20 -44 53 3 13 1 22 -6 22 -6 0 -11 9 -11 20 0
13 -7 20 -20 20 -14 0 -20 6 -18 17 2 12 -8 21 -32 29 -35 11 -60 43 -60 77 0
19 -20 24 -20 5 0 -7 -14 3 -30 22 -17 19 -37 43 -45 53 -19 22 -19 27 1 27 8
0 12 5 9 10 -3 6 -10 10 -14 10 -11 0 -32 -50 -25 -61 3 -5 -1 -12 -9 -14 -19
-8 -67 12 -67 27 0 10 3 9 9 -1 7 -11 11 -10 20 7 6 11 11 25 11 31 0 18 -28
12 -33 -6 -3 -10 -5 1 -6 25 -1 28 -5 42 -13 41 -30 -4 -40 1 -31 14 15 17 23
96 11 103 -11 7 -48 -24 -48 -40 0 -6 5 -4 10 4 9 13 10 13 10 0 0 -9 -6 -24
-14 -35 -17 -25 -29 -102 -17 -109 5 -3 7 -15 4 -26 -3 -12 1 -22 11 -26 9 -3
16 -13 16 -21 0 -8 -5 -11 -11 -7 -11 7 -59 -14 -71 -31 -4 -5 -8 0 -8 12 0
13 10 29 24 39 15 9 22 21 19 30 -6 16 -33 19 -33 4 0 -5 -5 -10 -11 -10 -6 0
-8 9 -3 22 11 36 14 109 3 103 -5 -4 -9 -17 -9 -31 0 -15 -6 -24 -15 -24 -9 0
-15 -9 -15 -22 0 -13 -5 -30 -10 -38 -7 -11 -10 -1 -10 35 -1 28 -2 96 -3 153
-1 69 2 105 10 110 6 4 14 19 18 33 5 22 11 25 38 21 23 -2 28 -1 18 6 -7 5
-10 15 -7 21 4 6 3 11 -3 11 -5 0 -13 10 -17 22 -3 12 -13 28 -20 36 -21 20
-17 82 4 82 2 0 2 -7 -2 -15z m249 -26 c-3 -4 -12 -6 -20 -3 -8 4 -13 10 -10
15 3 4 12 6 20 3 8 -4 13 -10 10 -15z m-159 -76 c-10 -10 -19 5 -10 18 6 11 8
11 12 0 2 -7 1 -15 -2 -18z m-76 -13 c0 -5 -2 -10 -4 -10 -3 0 -8 5 -11 10 -3
6 -1 10 4 10 6 0 11 -4 11 -10z m290 -105 c0 -8 -7 -15 -15 -15 -16 0 -20 12
-8 23 11 12 23 8 23 -8z m447 -107 c-3 -8 -6 -5 -6 6 -1 11 2 17 5 13 3 -3 4
-12 1 -19z m78 -218 c-5 -8 -11 -8 -21 1 -12 10 -12 14 -2 20 16 10 33 -5 23
-21z m-745 -48 c0 -4 -9 -13 -20 -20 -19 -12 -20 -11 -8 8 13 20 28 27 28 12z
m990 -422 c0 -5 -4 -10 -10 -10 -5 0 -10 5 -10 10 0 6 5 10 10 10 6 0 10 -4
10 -10z m-470 -20 c0 -5 -4 -10 -10 -10 -5 0 -10 5 -10 10 0 6 5 10 10 10 6 0
10 -4 10 -10z m108 -18 c20 -18 20 -19 3 -46 -11 -16 -21 -23 -25 -18 -3 6 -2
13 4 17 20 12 10 43 -17 53 -23 9 -25 11 -7 11 12 1 30 -7 42 -17z m-18 -998
c0 -2 -7 -4 -15 -4 -8 0 -15 4 -15 10 0 5 7 7 15 4 8 -4 15 -8 15 -10z m-1386
-9 c3 -9 0 -15 -9 -15 -8 0 -15 7 -15 15 0 8 4 15 9 15 5 0 11 -7 15 -15z
m1056 -25 c0 -5 -4 -10 -10 -10 -5 0 -10 5 -10 10 0 6 5 10 10 10 6 0 10 -4
10 -10z"/>
<path d="M2175 3470 c-3 -5 -1 -10 4 -10 6 0 11 5 11 10 0 6 -2 10 -4 10 -3 0
-8 -4 -11 -10z"/>
<path d="M1130 2010 c0 -5 5 -10 11 -10 5 0 7 5 4 10 -3 6 -8 10 -11 10 -2 0
-4 -4 -4 -10z"/>
<path d="M1111 1884 c0 -11 3 -14 6 -6 3 7 2 16 -1 19 -3 4 -6 -2 -5 -13z"/>
<path d="M1282 1835 c-1 -20 -4 -40 -7 -45 -3 -4 4 -6 15 -3 11 3 20 1 20 -5
0 -6 -8 -13 -17 -15 -10 -2 3 -4 28 -3 26 0 45 4 42 9 -2 4 8 7 24 7 25 1 26
2 11 14 -27 20 -11 26 56 21 60 -5 60 -5 -19 10 -44 9 -88 14 -98 11 -10 -2
-21 4 -27 15 -16 29 -27 23 -28 -16z"/>
<path d="M1317 1753 c-12 -11 -7 -40 8 -53 13 -11 13 -15 3 -21 -10 -7 -9 -9
5 -9 9 0 17 4 17 9 0 16 42 24 51 10 10 -17 23 -5 16 16 -4 8 -16 15 -29 15
-12 0 -31 9 -43 20 -12 11 -25 17 -28 13z"/>
<path d="M1280 1721 c0 -25 6 -27 13 -6 4 8 2 17 -3 20 -6 4 -10 -3 -10 -14z"/>
<path d="M1361 1664 c0 -11 3 -14 6 -6 3 7 2 16 -1 19 -3 4 -6 -2 -5 -13z"/>
<path d="M1288 1653 c7 -3 16 -2 19 1 4 3 -2 6 -13 5 -11 0 -14 -3 -6 -6z"/>
<path d="M2680 3700 c0 -21 142 -121 155 -109 8 9 -39 67 -70 86 -33 20 -85
34 -85 23z"/>
<path d="M2850 3311 c0 -6 5 -13 10 -16 6 -3 10 1 10 9 0 9 -4 16 -10 16 -5 0
-10 -4 -10 -9z"/>
<path d="M3068 2980 c2 -22 8 -38 12 -35 5 3 16 -5 24 -17 17 -24 22 -18 7 10
-5 9 -15 32 -21 50 -17 44 -26 40 -22 -8z"/>
<path d="M3074 2878 c-4 -7 -3 -8 4 -4 17 10 15 -9 -2 -23 -11 -10 -15 -8 -19
6 -3 13 -5 11 -6 -7 l-1 -25 -19 28 c-16 25 -19 26 -26 10 -16 -40 -23 -72
-17 -78 4 -4 7 -31 7 -60 0 -41 -4 -56 -19 -65 -16 -10 -18 -9 -14 8 7 24 -8
52 -27 52 -19 0 -19 -35 -1 -136 8 -44 17 -104 21 -134 10 -89 27 -164 40
-175 21 -18 22 -40 3 -67 -17 -24 -26 -28 -69 -28 -27 0 -49 -3 -49 -8 0 -6
102 -7 151 -3 4 1 10 11 14 24 21 61 23 63 24 22 2 -54 18 -28 27 43 3 29 13
59 20 67 8 7 11 20 8 28 -7 18 13 60 25 52 16 -9 1 387 -15 412 -8 12 -11 30
-7 40 6 16 5 16 -10 4 -15 -12 -17 -11 -17 8 0 23 -14 28 -26 9z m-13 -131
c-13 -13 -15 11 -4 40 7 16 8 15 11 -6 2 -13 -1 -28 -7 -34z m-44 -89 c-3 -7
-5 -2 -5 12 0 14 2 19 5 13 2 -7 2 -19 0 -25z m20 -50 c-3 -7 -5 -2 -5 12 0
14 2 19 5 13 2 -7 2 -19 0 -25z m36 -323 c4 -8 2 -17 -3 -20 -6 -4 -10 -4 -10
-1 0 2 -3 11 -6 20 -3 9 -2 16 4 16 5 0 12 -7 15 -15z m-39 -62 c-5 -14 -16
-29 -24 -31 -11 -4 -10 0 4 16 12 13 16 29 13 43 -4 16 -3 19 6 10 7 -7 8 -19
1 -38z"/>
<path d="M1111 2614 c0 -11 3 -14 6 -6 3 7 2 16 -1 19 -3 4 -6 -2 -5 -13z"/>
<path d="M1412 2618 c-13 -13 -17 -68 -4 -68 4 0 17 7 28 17 17 13 19 20 10
39 -13 27 -17 29 -34 12z"/>
<path d="M1345 2570 c-3 -5 -1 -10 4 -10 6 0 11 5 11 10 0 6 -2 10 -4 10 -3 0
-8 -4 -11 -10z"/>
<path d="M3021 2060 c0 -8 4 -24 9 -35 l9 -20 0 20 c0 11 -4 27 -9 35 -9 13
-10 13 -9 0z"/>
<path d="M3022 1950 c-1 -46 1 -52 10 -33 8 16 8 32 0 55 -9 32 -10 31 -10
-22z"/>
<path d="M2425 1650 c-7 -11 23 -99 40 -116 8 -9 15 -13 15 -9 0 12 58 -25 92
-59 35 -35 52 -42 81 -30 22 8 9 50 -32 97 -55 62 -80 85 -112 99 -16 7 -29
16 -29 19 0 9 -49 8 -55 -1z"/>
<path d="M2058 1603 c7 -3 16 -2 19 1 4 3 -2 6 -13 5 -11 0 -14 -3 -6 -6z"/>
<path d="M2880 1028 l-32 -52 7 -246 c4 -138 14 -282 22 -330 8 -47 17 -102
20 -122 3 -21 9 -38 13 -38 15 0 4 -75 -15 -105 -11 -16 -39 -54 -63 -83 l-44
-52 606 0 606 0 0 274 c0 253 -1 275 -17 280 -110 32 -230 62 -348 86 -78 15
-162 35 -186 43 -24 8 -68 18 -98 22 -42 6 -63 15 -95 44 -67 61 -119 98 -169
122 -39 19 -56 37 -103 111 -30 48 -59 90 -63 93 -5 2 -23 -19 -41 -47z"/>
<path d="M1850 10 c0 -5 7 -10 16 -10 8 0 12 5 9 10 -3 6 -10 10 -16 10 -5 0
-9 -4 -9 -10z"/>
</g>
</svg>
